<svg width="500" height="500" viewBox="0 0 500 500" fill="none" xmlns="http://www.w3.org/2000/svg">
  <path d="M250 450C361.503 450 452 359.503 452 248C452 136.497 361.503 46 250 46C138.497 46 48 136.497 48 248C48 359.503 138.497 450 250 450Z" fill="#F8F7FA"/>
  <path d="M250 400C333.843 400 402 331.843 402 248C402 164.157 333.843 96 250 96C166.157 96 98 164.157 98 248C98 331.843 166.157 400 250 400Z" fill="#6610F2" fillOpacity="0.1"/>
  <path d="M250 350C306.274 350 352 304.274 352 248C352 191.726 306.274 146 250 146C193.726 146 148 191.726 148 248C148 304.274 193.726 350 250 350Z" fill="#6610F2" fillOpacity="0.2"/>
  <path d="M250 300C278.719 300 302 276.719 302 248C302 219.281 278.719 196 250 196C221.281 196 198 219.281 198 248C198 276.719 221.281 300 250 300Z" fill="#6610F2"/>
  <path d="M250 270C262.15 270 272 260.15 272 248C272 235.85 262.15 226 250 226C237.85 226 228 235.85 228 248C228 260.15 237.85 270 250 270Z" fill="white"/>
</svg>