<svg width="34" height="24" viewBox="0 0 34 24" fill="none" xmlns="http://www.w3.org/2000/svg">
  <path d="M0.00183571 3.02645C0.0116533 2.14628 0.421079 1.30979 1.13541 0.706931C1.84974 0.104075 2.80201 -0.139723 3.72472 0.0676361L31.9116 6.7048C32.8343 6.91215 33.6033 7.50096 34.0023 8.29977C34.4013 9.09858 34.3877 10.0138 33.9659 10.8017L24.2484 27.0222C23.8266 27.8101 23.0391 28.3772 22.1105 28.5596C21.1819 28.742 20.2256 28.5209 19.4773 27.9497L0.810578 13.1281C0.29116 12.7228 -0.0198338 12.1498 0.00183571 11.5596V3.02645Z" fill="#696CFF"/>
  <path opacity="0.077704" d="M0.00183571 3.02645C0.0116533 2.14628 0.421079 1.30979 1.13541 0.706931C1.84974 0.104075 2.80201 -0.139723 3.72472 0.0676361L31.9116 6.7048C32.8343 6.91215 33.6033 7.50096 34.0023 8.29977C34.4013 9.09858 34.3877 10.0138 33.9659 10.8017L24.2484 27.0222C23.8266 27.8101 23.0391 28.3772 22.1105 28.5596C21.1819 28.742 20.2256 28.5209 19.4773 27.9497L0.810578 13.1281C0.29116 12.7228 -0.0198338 12.1498 0.00183571 11.5596V3.02645Z" fill="white"/>
  <path opacity="0.077704" d="M0.00183571 3.02645C0.0116533 2.14628 0.421079 1.30979 1.13541 0.706931C1.84974 0.104075 2.80201 -0.139723 3.72472 0.0676361L31.9116 6.7048C32.8343 6.91215 33.6033 7.50096 34.0023 8.29977C34.4013 9.09858 34.3877 10.0138 33.9659 10.8017L24.2484 27.0222C23.8266 27.8101 23.0391 28.3772 22.1105 28.5596C21.1819 28.742 20.2256 28.5209 19.4773 27.9497L0.810578 13.1281C0.29116 12.7228 -0.0198338 12.1498 0.00183571 11.5596V3.02645Z" fill="white"/>
</svg>